<!DOCTYPE svg PUBLIC "-//W3C//DTD SVG 1.1//EN" "http://www.w3.org/Graphics/SVG/1.1/DTD/svg11.dtd">
<!-- Uploaded to: SVG Repo, www.svgrepo.com, Transformed by: SVG Repo Mixer Tools -->
<svg width="800px" height="800px" viewBox="0 0 24 24" fill="none" xmlns="http://www.w3.org/2000/svg">
<g id="SVGRepo_bgCarrier" stroke-width="0"/>
<g id="SVGRepo_tracerCarrier" stroke-linecap="round" stroke-linejoin="round"/>
<g id="SVGRepo_iconCarrier"> <path d="M16.1429 1.25C15.7286 1.25 15.3929 1.58579 15.3929 2C15.3929 2.41421 15.7286 2.75 16.1429 2.75H20.1893L14.4697 8.46967C14.1768 8.76256 14.1768 9.23744 14.4697 9.53033C14.7626 9.82322 15.2374 9.82322 15.5303 9.53033L21.25 3.81066V7.85714C21.25 8.27136 21.5858 8.60714 22 8.60714C22.4142 8.60714 22.75 8.27136 22.75 7.85714V2C22.75 1.58579 22.4142 1.25 22 1.25H16.1429Z" fill="currentColor"/> <path d="M7.85714 22.75C8.27136 22.75 8.60714 22.4142 8.60714 22C8.60714 21.5858 8.27136 21.25 7.85714 21.25H3.81066L9.53033 15.5303C9.82322 15.2374 9.82322 14.7626 9.53033 14.4697C9.23744 14.1768 8.76256 14.1768 8.46967 14.4697L2.75 20.1893V16.1429C2.75 15.7286 2.41421 15.3929 2 15.3929C1.58579 15.3929 1.25 15.7286 1.25 16.1429V22C1.25 22.4142 1.58579 22.75 2 22.75H7.85714Z" fill="currentColor"/> </g>
</svg>
