<?xml version="1.0" encoding="utf-8"?><!-- Uploaded to: SVG Repo, www.svgrepo.com, Generator: SVG Repo Mixer Tools -->
<svg width="800px" height="800px" viewBox="0 0 24 24" fill="none" xmlns="http://www.w3.org/2000/svg">
<path d="M14.0002 7.00004L16.8286 9.82846M3.69763 19.5653L4.26331 20.131C4.65933 20.527 4.85734 20.7251 5.08567 20.7992C5.28651 20.8645 5.50286 20.8645 5.7037 20.7992C5.93203 20.7251 6.13004 20.527 6.52606 20.131L20.0828 6.57427C20.4788 6.17825 20.6768 5.98025 20.751 5.75192C20.8163 5.55107 20.8163 5.33473 20.751 5.13388C20.6768 4.90555 20.4788 4.70755 20.0828 4.31153L19.5171 3.74584C19.1211 3.34983 18.9231 3.15182 18.6948 3.07763C18.4939 3.01237 18.2776 3.01237 18.0767 3.07763C17.8484 3.15182 17.6504 3.34983 17.2544 3.74585L3.69763 17.3026C3.30161 17.6986 3.1036 17.8966 3.02941 18.125C2.96415 18.3258 2.96415 18.5422 3.02941 18.743C3.1036 18.9713 3.30161 19.1693 3.69763 19.5653Z" stroke="currentColor" stroke-width="2" stroke-linecap="round" stroke-linejoin="round"/>
</svg>
