<?xml version="1.0" encoding="iso-8859-1"?>
<!-- Uploaded to: SVG Repo, www.svgrepo.com, Generator: SVG Repo Mixer Tools -->
<svg fill="#000000" height="800px" width="800px" version="1.1" id="Layer_1" xmlns="http://www.w3.org/2000/svg" xmlns:xlink="http://www.w3.org/1999/xlink" 
	 viewBox="0 0 512 512" xml:space="preserve">
<g>
	<g>
		<path d="M298.536,185.564c13.688,3.896,38.225,9.534,65.608,9.534c25.471,0,53.395-4.884,77.294-20.592
			c61.798-40.625,67.784-134.619,68.01-138.601c0.568-10.067-5.516-19.32-14.981-22.79c-3.745-1.371-92.411-33.143-154.202,7.478
			c-49.503,32.542-63.196,99.318-66.802,126.652c-46.621,31.212-87.073,73.742-119.672,125.507
			c-1.043-6.192-2.301-12.36-3.776-18.493c15.4-22.711,49.706-81.886,34.256-139.227C165.028,43.624,77.631,8.516,73.921,7.056
			c-9.383-3.69-20.078-0.808-26.336,7.096c-2.476,3.125-60.402,77.388-41.161,148.795c15.397,57.14,74.422,91.034,99.301,103.047
			c8.288,35.163,8.05,71.691-0.733,106.598c-23.34,63.115-29.116,111.699-29.366,113.901c-1.438,12.565,7.582,23.919,20.146,25.355
			c0.885,0.101,1.763,0.151,2.634,0.151c11.482,0,21.387-8.618,22.723-20.299c0.081-0.711,3.085-25.16,13.206-61.06
			c30.18-20.444,64.901-33.218,101.25-37.285c18.693,18.42,66.339,59.222,121.633,59.222c2.913,0,5.85-0.113,8.803-0.35
			c73.719-5.887,124.181-85.409,126.294-88.793c5.34-8.553,4.458-19.592-2.172-27.189c-2.621-3.005-65.062-73.523-138.79-67.622
			c-59.198,4.73-103.392,56.934-119.603,79.072c-25.978,2.785-51.28,9.279-75.185,19.203
			C182.384,305.392,226.012,234.195,298.536,185.564z M365.421,58.863c29.447-19.36,72.265-13.285,95.944-7.67
			c-4.235,23.966-15.636,65.68-45.086,85.042c-29.433,19.348-72.219,13.291-95.895,7.685
			C324.691,119.927,336.187,78.081,365.421,58.863z M117.299,220.478c-21.436-11.525-57.485-35.413-66.655-69.445
			c-9.162-34.001,9.968-72.73,22.713-93.475c21.439,11.6,57.585,35.615,66.688,69.39
			C149.215,160.984,130.033,199.757,117.299,220.478z M354.992,314.281c35.106-2.826,69.749,23.116,87.809,39.428
			c-15.242,18.974-45.305,50.059-80.434,52.863c-35.178,2.805-69.764-23.122-87.812-39.422
			C289.797,348.177,319.862,317.089,354.992,314.281z"/>
	</g>
</g>
</svg>