<?xml version="1.0" encoding="iso-8859-1"?>
<!-- Uploaded to: SVG Repo, www.svgrepo.com, Generator: SVG Repo Mixer Tools -->
<svg fill="#000000" height="800px" width="800px" version="1.1" id="Layer_1" xmlns="http://www.w3.org/2000/svg" xmlns:xlink="http://www.w3.org/1999/xlink" 
	 viewBox="0 0 512 512" xml:space="preserve">
<g>
	<g>
		<path d="M391.021,240.862c-10.854-41.959-33.739-67.265-56.153-82.47c0.528-0.411,1.056-0.82,1.577-1.259
			c21.733-18.285,30.052-54.608,24.727-107.959l-2.469-24.744l-21.255,12.906c-18.097,10.989-32.778,22.081-44.032,33.227
			c-5.09-15.034-13.292-31.56-24.612-49.526L255.547,0L242.29,21.037c-11.274,17.892-19.453,34.354-24.548,49.339
			c-11.26-11.16-25.954-22.265-44.073-33.267l-21.255-12.905l-2.469,24.743c-5.325,53.351,2.994,89.673,24.726,107.959
			c0.708,0.595,1.423,1.164,2.142,1.707c-22.313,15.228-45.031,40.489-55.834,82.248c-16.717,64.615-13.59,161.436,32.776,221.323
			C178.986,494.774,214.342,512,255.999,512c41.658,0,77.015-17.226,102.245-49.816
			C404.612,402.297,407.738,305.477,391.021,240.862z M360.683,248.711c1.33,5.141,2.5,10.491,3.523,15.989l-34.898,33.572
			l-52.522-50.526l54.159-52.1C343.548,207.879,354.531,224.931,360.683,248.711z M306.707,320.014l-52.522,50.526l-52.523-50.526
			l52.522-50.526L306.707,320.014z M297.377,123.308c0.58-7.971,6.199-23.22,34.05-44.212c-0.024,34.877-8.828,48.536-14.848,53.793
			c-5.132,4.482-10.94,5.171-14.518,5.064C299.821,135.15,296.882,130.103,297.377,123.308z M255.547,61.091
			c15.55,31.219,13.77,47.372,10.73,54.764c-2.591,6.301-7.474,9.506-10.73,11.013c-3.255-1.507-8.14-4.712-10.73-11.013
			c-0.368-0.894-0.716-1.92-1.018-3.082c-0.118-0.534-0.23-1.069-0.365-1.602C241.684,102.391,242.697,86.888,255.547,61.091z
			 M255.791,164.602c0.018,0,0.034,0,0.049,0l0.16,0.002l0.16-0.002c0.447,0,23.729,0.04,48.734,12.619l-50.709,48.782
			l-49.595-47.709C229.619,164.934,253.642,164.602,255.791,164.602z M212.91,118.358c0.113,0.518,0.245,1.027,0.372,1.539
			c0.244,1.164,0.39,2.227,0.459,3.183c0.496,6.822-2.467,11.882-4.71,14.678c-3.446,0.092-9.091-0.546-14.184-4.831
			c-6.145-5.171-15.144-18.776-15.16-54.061C202.78,96.271,210.584,109.724,212.91,118.358z M151.319,248.711
			c5.876-22.715,16.067-39.286,27.847-51.39l52.416,50.424l-52.522,50.526l-31.8-30.591
			C148.402,261.128,149.751,254.775,151.319,248.711z M143.254,307.309l13.206,12.703l-12.968,12.475
			C143.053,324.056,142.981,315.63,143.254,307.309z M178.535,443c-15.07-19.466-24.855-44.646-30.256-71.633l30.781-29.612
			l52.523,50.526l-52.907,50.896C178.629,443.119,178.582,443.061,178.535,443z M256.001,480.662
			c-20.777,0-39.033-5.331-54.578-15.882l52.762-50.756l54.238,52.176C293.354,475.809,275.824,480.662,256.001,480.662z
			 M333.467,442.999c-0.565,0.73-1.138,1.448-1.715,2.157l-54.965-52.876l52.522-50.526l33.818,32.532
			C357.613,400.168,347.992,424.237,333.467,442.999z M368.33,335.809l-16.42-15.796l16.723-16.087
			C369.095,314.428,369.008,325.128,368.33,335.809z"/>
	</g>
</g>
</svg>