<?xml version="1.0" encoding="iso-8859-1"?>
<!-- Uploaded to: SVG Repo, www.svgrepo.com, Generator: SVG Repo Mixer Tools -->
<!DOCTYPE svg PUBLIC "-//W3C//DTD SVG 1.1//EN" "http://www.w3.org/Graphics/SVG/1.1/DTD/svg11.dtd">
<svg fill="#000000" height="800px" width="800px" version="1.1" id="Capa_1" xmlns="http://www.w3.org/2000/svg" xmlns:xlink="http://www.w3.org/1999/xlink" 
	 viewBox="0 0 297 297" xml:space="preserve">
<g>
	<path d="M254.141,53.244C224.508,18.909,185.299,0,143.736,0c-35.062,0-68.197,13.458-93.302,37.9
		C10.383,76.892-2.822,123.282,14.207,165.178c13.868,34.122,45.625,57.954,77.227,57.954c0.841,0,1.671-0.016,2.508-0.053
		c4.705-0.194,9.249-0.586,13.646-0.966c5.309-0.462,10.325-0.895,14.77-0.895c10.54,0,19.645,0,19.645,26.846
		c0,28.811,17.538,48.934,42.65,48.936c0.002,0,0.002,0,0.004,0c17.864,0,37.651-10.342,57.215-29.903
		c25.882-25.88,43.099-62.198,47.234-99.64C293.762,125.326,281.343,84.763,254.141,53.244z M227.315,252.54
		c-15.397,15.398-30.55,23.877-42.66,23.875c-16.288,0-22.064-15.274-22.064-28.352c0-32.357-12.786-47.43-40.232-47.43
		c-5.333,0-10.778,0.472-16.545,0.969c-4.169,0.359-8.481,0.733-12.724,0.909c-0.553,0.024-1.102,0.034-1.655,0.034
		c-23.07,0-47.529-18.975-58.156-45.118c-13.714-33.738-2.225-71.927,31.519-104.779c21.239-20.676,49.272-32.063,78.939-32.063
		c35.485,0,69.159,16.373,94.82,46.107C289.187,125.359,272.6,207.256,227.315,252.54z"/>
	<path d="M192.654,165.877c0,17.213,13.918,31.217,31.026,31.217c17.107,0,31.025-14.004,31.025-31.217
		c0-17.215-13.918-31.219-31.025-31.219C206.572,134.658,192.654,148.662,192.654,165.877z M234.118,165.877
		c0,5.861-4.682,10.633-10.438,10.633c-5.756,0-10.438-4.771-10.438-10.633c0-5.863,4.683-10.633,10.438-10.633
		C229.436,155.244,234.118,160.014,234.118,165.877z"/>
	<path d="M226.914,93.489c0-17.215-13.917-31.219-31.025-31.219c-17.107,0-31.025,14.004-31.025,31.219
		c0,17.211,13.918,31.218,31.025,31.218C212.997,124.707,226.914,110.7,226.914,93.489z M185.45,93.489
		c0-5.865,4.684-10.632,10.439-10.632c5.756,0,10.438,4.767,10.438,10.632c0,5.86-4.683,10.633-10.438,10.633
		C190.133,104.122,185.45,99.35,185.45,93.489z"/>
	<path d="M124.863,39.627c-17.107,0-31.025,14.004-31.025,31.217c0,17.213,13.918,31.217,31.025,31.217s31.025-14.004,31.025-31.217
		C155.888,53.631,141.97,39.627,124.863,39.627z M124.863,81.478c-5.756,0-10.438-4.771-10.438-10.634
		c0-5.863,4.682-10.633,10.438-10.633c5.756,0,10.438,4.77,10.438,10.633C135.3,76.707,130.619,81.478,124.863,81.478z"/>
	<path d="M70.821,92.809c-17.107,0-31.026,14.004-31.026,31.217c0,17.214,13.919,31.219,31.026,31.219s31.024-14.005,31.024-31.219
		C101.845,106.813,87.928,92.809,70.821,92.809z M70.821,134.658c-5.757,0-10.439-4.77-10.439-10.633
		c0-5.861,4.683-10.63,10.439-10.63c5.755,0,10.438,4.769,10.438,10.63C81.259,129.889,76.576,134.658,70.821,134.658z"/>
</g>
</svg>