<?xml version="1.0" encoding="iso-8859-1"?>
<!-- Uploaded to: SVG Repo, www.svgrepo.com, Generator: SVG Repo Mixer Tools -->
<svg fill="#000000" height="800px" width="800px" version="1.1" id="Layer_1" xmlns="http://www.w3.org/2000/svg" xmlns:xlink="http://www.w3.org/1999/xlink" 
	 viewBox="0 0 512.002 512.002" xml:space="preserve">
<g>
	<g>
		<path d="M506.084,291.132c-0.8-1.158-15.545-22.2-39.667-35.126c24.124-12.931,38.868-33.98,39.666-35.137
			c3.898-5.659,2.533-13.398-3.066-17.381c-1.143-0.814-22.193-15.542-49.287-19.447c18.252-20.408,24.907-45.228,25.259-46.586
			c1.727-6.65-2.202-13.455-8.826-15.283c-1.353-0.373-26.18-7.016-52.971-1.415c10.171-25.416,7.936-51.021,7.803-52.42
			c-0.651-6.841-6.688-11.927-13.521-11.343c-1.4,0.112-27.002,2.36-50.262,16.788c0.865-27.358-9.991-50.653-10.595-51.922
			c-2.953-6.206-10.338-8.891-16.587-6.034c-1.278,0.585-24.566,11.46-41.49,32.974c-8.544-26.019-26.714-44.2-27.715-45.186
			c-4.896-4.821-12.755-4.821-17.65,0c-1,0.985-19.165,19.161-27.711,45.174c-16.924-21.505-40.205-32.378-41.482-32.962
			c-6.25-2.857-13.636-0.172-16.587,6.034c-0.604,1.269-11.46,24.564-10.6,51.924c-23.265-14.429-48.86-16.678-50.259-16.79
			C93.71,56.432,87.667,61.5,87.016,68.34c-0.133,1.398-2.368,27.005,7.806,52.423c-26.793-5.606-51.627,1.036-52.982,1.411
			c-6.625,1.828-10.555,8.636-8.827,15.286c0.353,1.359,7.016,26.181,25.268,46.588c-27.085,3.907-48.15,18.627-49.296,19.44
			c-5.6,3.984-6.966,11.725-3.066,17.384c0.797,1.157,15.55,22.205,39.676,35.135C21.47,268.934,6.719,289.973,5.921,291.128
			c-3.902,5.659-2.538,13.4,3.062,17.384c1.144,0.815,22.194,15.553,49.286,19.462c-18.243,20.4-24.902,45.21-25.255,46.57
			c-1.728,6.65,2.202,13.457,8.827,15.286c0.957,0.264,13.627,3.663,30.429,3.663c6.984,0,14.684-0.596,22.553-2.241
			c-10.174,25.418-7.939,51.025-7.806,52.424c0.619,6.5,6.087,11.385,12.505,11.385c0.337,0,0.675-0.014,1.016-0.041
			c1.4-0.112,26.993-2.36,50.257-16.79c-0.858,27.357,9.996,50.653,10.599,51.922c2.152,4.525,6.659,7.178,11.365,7.178
			c1.752,0,3.53-0.367,5.224-1.142c1.276-0.583,24.559-11.456,41.483-32.968c8.546,26.006,26.71,44.183,27.711,45.167
			c2.447,2.411,5.636,3.615,8.825,3.615c3.189,0,6.377-1.205,8.826-3.615c1.001-0.986,19.17-19.166,27.715-45.179
			c16.924,21.518,40.214,32.394,41.49,32.979c1.696,0.775,3.473,1.142,5.224,1.142c4.706,0,9.213-2.653,11.364-7.178
			c0.602-1.269,11.455-24.563,10.592-51.922c23.261,14.429,48.863,16.679,50.263,16.791c0.341,0.028,0.679,0.041,1.016,0.041
			c6.419,0,11.886-4.886,12.505-11.385c0.133-1.398,2.368-27.005-7.804-52.422c7.866,1.644,15.563,2.238,22.545,2.238
			c16.8,0,29.469-3.399,30.425-3.663c6.624-1.828,10.552-8.633,8.826-15.283c-0.352-1.359-7.005-26.171-25.248-46.57
			c27.088-3.91,48.135-18.651,49.28-19.466C508.618,304.528,509.981,296.789,506.084,291.132z M476.305,217.161
			c-8.509,8.671-22.42,19.971-39.253,22.935c-8.387,1.479-17.564,0.915-27.371-1.674c-0.006-0.052-0.014-0.102-0.02-0.152
			c-0.122-1.07-0.267-2.135-0.41-3.201c-0.063-0.46-0.113-0.923-0.18-1.383c-0.444-3.076-0.98-6.131-1.606-9.16
			c-0.015-0.074-0.034-0.147-0.049-0.221c-0.298-1.431-0.615-2.857-0.954-4.276c-0.006-0.026-0.011-0.054-0.018-0.08
			c8.304-5.771,16.73-9.435,25.126-10.919C448.4,206.059,465.343,211.925,476.305,217.161z M449.74,144.155
			c-5.031,11.056-14.242,26.435-29.053,34.984c-7.376,4.261-16.186,6.866-26.264,7.78c-0.024-0.048-0.05-0.096-0.074-0.143
			c-0.396-0.79-0.812-1.569-1.221-2.353c-0.302-0.577-0.592-1.159-0.902-1.733c-0.727-1.348-1.473-2.686-2.24-4.013
			c-0.153-0.264-0.316-0.523-0.47-0.787c-0.625-1.066-1.254-2.129-1.904-3.18c-0.324-0.524-0.665-1.037-0.996-1.558
			c-0.496-0.778-0.985-1.561-1.494-2.332c-0.031-0.049-0.062-0.098-0.094-0.147c5.838-8.266,12.504-14.589,19.892-18.848
			C419.727,143.273,437.649,142.99,449.74,144.155z M360.315,107.165c10.976-13.084,27.701-19.483,39.456-22.52
			c-0.966,12.132-4.37,29.774-15.296,42.793c-5.493,6.541-12.894,12.01-22.059,16.317c-0.03-0.029-0.063-0.057-0.094-0.087
			c-0.75-0.711-1.517-1.405-2.281-2.1c-0.374-0.341-0.74-0.688-1.117-1.025c-1.143-1.02-2.303-2.025-3.477-3.012
			c-0.277-0.233-0.563-0.456-0.841-0.687c-0.907-0.751-1.813-1.499-2.738-2.23c-0.468-0.368-0.946-0.724-1.417-1.088
			c-0.75-0.578-1.495-1.162-2.255-1.727c-0.044-0.033-0.086-0.067-0.13-0.099C350.72,121.93,354.825,113.702,360.315,107.165z
			 M303.116,80.464c5.843-16.041,19.37-27.774,29.375-34.649c3.241,11.728,6.074,29.464,0.263,45.426
			c-2.92,8.006-7.992,15.67-15.117,22.861c-0.043-0.019-0.087-0.035-0.13-0.054c-0.962-0.417-1.933-0.814-2.904-1.211
			c-0.456-0.187-0.908-0.385-1.366-0.567c-1.429-0.57-2.866-1.119-4.311-1.645c-0.005-0.001-0.01-0.004-0.014-0.005
			c-1.449-0.528-2.906-1.034-4.37-1.517c-0.498-0.165-1-0.313-1.499-0.472c-0.97-0.309-1.939-0.622-2.915-0.913
			c-0.045-0.013-0.089-0.029-0.133-0.042C299.163,97.584,300.207,88.455,303.116,80.464z M255.998,32.296
			c7.059,9.887,15.771,25.552,15.771,42.656c0,8.516-2.148,17.455-6.396,26.652c-0.077-0.005-0.153-0.006-0.23-0.01
			c-0.003,0-0.005,0-0.008,0c-3.027-0.179-6.079-0.272-9.136-0.272c-2.768,0-5.528,0.087-8.273,0.233
			c-0.311,0.016-0.624,0.024-0.933,0.041c-0.055,0.004-0.112,0.004-0.167,0.008c-4.248-9.198-6.396-18.136-6.396-26.653
			C240.229,57.848,248.944,42.179,255.998,32.296z M179.482,45.827c10.025,6.904,23.599,18.673,29.414,34.633
			c2.912,8.004,3.955,17.132,3.116,27.215c-0.052,0.015-0.103,0.033-0.155,0.049c-0.883,0.262-1.759,0.547-2.637,0.825
			c-0.587,0.186-1.178,0.361-1.764,0.555c-1.455,0.48-2.905,0.982-4.345,1.507c-0.157,0.057-0.312,0.121-0.469,0.179
			c-1.295,0.475-2.586,0.965-3.867,1.475c-0.494,0.196-0.982,0.41-1.475,0.611c-0.937,0.385-1.875,0.766-2.804,1.168
			c-0.044,0.019-0.089,0.036-0.132,0.055c-7.133-7.187-12.203-14.847-15.115-22.846C173.412,75.205,176.235,57.523,179.482,45.827z
			 M151.702,107.173c5.474,6.515,9.575,14.742,12.237,24.527c-0.03,0.023-0.06,0.047-0.091,0.069
			c-0.965,0.717-1.915,1.452-2.863,2.191c-0.265,0.206-0.536,0.406-0.8,0.614c-2.43,1.919-4.801,3.912-7.111,5.973
			c-0.225,0.201-0.443,0.41-0.668,0.612c-0.918,0.829-1.831,1.661-2.729,2.511c-0.03,0.028-0.062,0.055-0.092,0.084
			c-9.157-4.305-16.553-9.772-22.047-16.313c-10.992-13.097-14.384-30.701-15.33-42.805
			C123.969,87.674,140.709,94.077,151.702,107.173z M107.087,151.83c7.381,4.257,14.048,10.577,19.884,18.843
			c-0.03,0.045-0.058,0.092-0.087,0.136c-0.544,0.825-1.07,1.661-1.598,2.495c-0.296,0.467-0.601,0.927-0.892,1.397
			c-0.732,1.183-1.444,2.378-2.143,3.579c-0.075,0.131-0.157,0.258-0.233,0.389c-0.77,1.332-1.519,2.675-2.248,4.028
			c-0.273,0.507-0.529,1.021-0.796,1.53c-0.445,0.85-0.897,1.696-1.326,2.554c-0.024,0.047-0.049,0.092-0.072,0.14
			c-10.078-0.914-18.888-3.52-26.263-7.779c-14.808-8.553-24.02-23.934-29.051-34.984C74.358,142.987,92.284,143.277,107.087,151.83
			z M35.716,217.184c10.995-5.23,27.98-11.102,44.703-8.156c8.402,1.484,16.831,5.148,25.138,10.917
			c-0.01,0.042-0.018,0.084-0.028,0.127c-0.275,1.158-0.528,2.32-0.777,3.485c-0.072,0.337-0.155,0.673-0.224,1.01
			c-0.629,3.038-1.164,6.095-1.607,9.164c-0.04,0.277-0.07,0.555-0.108,0.831c-0.172,1.242-0.338,2.487-0.48,3.734
			c-0.005,0.045-0.013,0.089-0.018,0.135c-9.786,2.588-18.96,3.148-27.362,1.666C58.134,237.134,44.226,225.848,35.716,217.184z
			 M35.698,294.847c8.511-8.667,22.428-19.964,39.263-22.928c8.399-1.483,17.572-0.921,27.357,1.666
			c0.006,0.053,0.014,0.104,0.02,0.157c0.109,0.96,0.241,1.915,0.368,2.872c0.075,0.568,0.14,1.139,0.223,1.706
			c0.441,3.055,0.976,6.095,1.6,9.115c0.074,0.358,0.161,0.714,0.238,1.073c0.245,1.148,0.494,2.294,0.766,3.434
			c0.01,0.04,0.018,0.082,0.026,0.122c-8.315,5.767-16.743,9.432-25.131,10.921C63.595,305.957,46.655,300.082,35.698,294.847z
			 M62.296,367.852c5.059-11.07,14.295-26.482,29.015-34.976c7.374-4.259,16.185-6.865,26.266-7.781
			c0.018,0.034,0.036,0.068,0.053,0.102c0.503,1.005,1.029,2,1.554,2.993c0.194,0.366,0.376,0.734,0.572,1.099
			c0.729,1.353,1.48,2.697,2.251,4.03c0.196,0.34,0.405,0.672,0.604,1.01c0.581,0.987,1.162,1.973,1.766,2.949
			c0.385,0.621,0.787,1.234,1.181,1.85c0.434,0.679,0.859,1.362,1.303,2.035c0.038,0.057,0.072,0.114,0.109,0.171
			c-5.84,8.266-12.508,14.593-19.891,18.854C92.291,368.727,74.379,369.013,62.296,367.852z M151.699,404.849
			c-10.992,13.094-27.737,19.493-39.49,22.528c0.947-12.112,4.341-29.711,15.331-42.806c5.494-6.547,12.89-12.02,22.046-16.324
			c0.035,0.033,0.07,0.064,0.106,0.097c0.814,0.771,1.644,1.524,2.474,2.277c0.308,0.279,0.609,0.566,0.918,0.843
			c2.308,2.06,4.676,4.048,7.1,5.963c0.269,0.213,0.545,0.415,0.815,0.626c0.943,0.736,1.889,1.468,2.848,2.181
			c0.031,0.023,0.06,0.048,0.092,0.07C161.275,390.09,157.173,398.323,151.699,404.849z M208.895,431.54
			c-5.848,16.063-19.394,27.803-29.403,34.678c-3.255-11.708-6.087-29.408-0.244-45.465c2.91-7.999,7.982-15.66,15.115-22.847
			c0.043,0.019,0.086,0.035,0.128,0.053c0.977,0.424,1.963,0.825,2.948,1.229c0.444,0.182,0.883,0.373,1.328,0.551
			c1.407,0.561,2.823,1.1,4.247,1.62c0.026,0.01,0.053,0.02,0.079,0.03c1.45,0.528,2.909,1.034,4.375,1.517
			c0.484,0.16,0.972,0.303,1.458,0.459c0.982,0.313,1.962,0.629,2.949,0.923c0.047,0.014,0.092,0.029,0.137,0.043
			C212.85,414.411,211.809,423.536,208.895,431.54z M256,479.706c-7.059-9.884-15.771-25.547-15.771-42.642
			c0-8.515,2.149-17.456,6.4-26.665c0.039,0.003,0.078,0.003,0.117,0.005c1.182,0.07,2.37,0.117,3.559,0.16
			c0.342,0.013,0.683,0.035,1.026,0.045c1.553,0.047,3.11,0.07,4.668,0.07c1.559,0,3.117-0.025,4.669-0.07
			c0.279-0.009,0.557-0.026,0.836-0.036c1.258-0.044,2.514-0.094,3.761-0.17c0.034-0.003,0.069-0.003,0.103-0.005
			c4.25,9.209,6.4,18.151,6.4,26.665C271.769,454.161,263.055,469.826,256,479.706z M332.518,466.216
			c-10.014-6.878-23.555-18.618-29.403-34.673c-2.909-7.995-3.954-17.123-3.12-27.216c0.045-0.014,0.091-0.029,0.137-0.043
			c1.019-0.303,2.03-0.629,3.042-0.952c0.451-0.145,0.908-0.278,1.358-0.428c2.946-0.972,5.861-2.036,8.74-3.184
			c0.186-0.074,0.37-0.156,0.557-0.231c1.245-0.503,2.487-1.016,3.719-1.552c0.03-0.013,0.06-0.025,0.089-0.038
			c7.125,7.189,12.197,14.854,15.116,22.855C338.6,436.812,335.77,454.51,332.518,466.216z M329.554,362.619
			c-0.829,0.572-1.659,1.142-2.5,1.694c-0.003,0.001-0.005,0.004-0.008,0.006c-0.001,0.001-0.003,0.001-0.004,0.003
			c-4.144,2.726-8.427,5.204-12.773,7.382c-1.133,0.573-2.275,1.129-3.423,1.667c-8.045,3.773-16.478,6.703-25.122,8.727
			c-4.835,1.134-9.708,1.984-14.559,2.538c-7.402,0.888-15.211,1.11-22.816,0.667c-2.549-0.15-5.086-0.375-7.589-0.674
			c-4.771-0.543-9.64-1.392-14.471-2.525c-0.005-0.001-0.009-0.003-0.013-0.004c-9.876-2.315-19.481-5.811-28.554-10.387
			c-4.35-2.198-8.641-4.683-12.765-7.398c-8.463-5.555-16.288-12.128-23.277-19.555c-3.32-3.51-6.517-7.31-9.487-11.27
			c-0.766-1.025-1.515-2.061-2.248-3.106c-5.135-7.315-9.488-15.102-12.968-23.209c-1.964-4.554-3.656-9.203-5.04-13.851
			c-2.919-9.701-4.684-19.762-5.25-29.971c-0.142-2.36-0.215-4.834-0.215-7.352c0-2.51,0.073-4.979,0.219-7.403
			c0.073-1.325,0.17-2.65,0.284-3.973c0.762-8.797,2.426-17.508,4.974-25.975c1.361-4.583,3.053-9.229,5.035-13.828
			c0.498-1.161,1.014-2.314,1.547-3.461c1.284-2.76,2.68-5.472,4.162-8.14c2.826-5.088,5.991-10.004,9.493-14.688
			c0.003-0.003,0.004-0.006,0.006-0.01c2.953-3.951,6.144-7.748,9.507-11.304c6.095-6.479,12.847-12.319,20.116-17.404
			c1.036-0.724,2.083-1.434,3.14-2.128c0.003-0.001,0.005-0.004,0.008-0.006c0.001-0.001,0.003-0.001,0.004-0.003
			c4.113-2.706,8.404-5.192,12.75-7.388c2.269-1.144,4.57-2.222,6.901-3.229c6.993-3.023,14.248-5.424,21.655-7.161
			c4.835-1.134,9.708-1.984,14.559-2.538c8.34-1.001,17.193-1.146,25.694-0.455c0.308,0.025,0.617,0.042,0.924,0.068
			c0.448,0.039,0.888,0.094,1.333,0.138c0.819,0.082,1.64,0.158,2.455,0.257c4.776,0.544,9.649,1.393,14.487,2.529
			c1.349,0.316,2.694,0.659,4.032,1.02c8.458,2.276,16.691,5.421,24.552,9.399c4.305,2.157,8.588,4.634,12.733,7.362
			c8.51,5.597,16.331,12.169,23.276,19.563c3.344,3.536,6.537,7.334,9.493,11.292c0.863,1.153,1.699,2.323,2.521,3.502
			c4.999,7.169,9.262,14.82,12.7,22.83c1.933,4.456,3.62,9.097,5.035,13.856c2.911,9.627,4.674,19.679,5.244,29.942
			c0.142,2.359,0.215,4.828,0.215,7.338c0,2.518-0.073,4.991-0.219,7.415c-0.073,1.323-0.17,2.643-0.284,3.963
			c-0.761,8.794-2.426,17.504-4.975,25.972c-1.371,4.611-3.062,9.262-5.035,13.841c-3.966,9.242-9.08,18.084-15.196,26.28
			c-2.987,3.981-6.182,7.779-9.527,11.317C344.037,351.447,337.072,357.428,329.554,362.619z M360.314,404.847
			c-5.488-6.54-9.593-14.771-12.246-24.542c0.033-0.024,0.064-0.05,0.097-0.074c0.936-0.695,1.857-1.41,2.778-2.125
			c0.294-0.229,0.595-0.45,0.887-0.682c2.427-1.918,4.796-3.91,7.104-5.968c0.238-0.213,0.468-0.433,0.703-0.646
			c0.904-0.817,1.806-1.639,2.69-2.477c0.03-0.029,0.062-0.055,0.092-0.084c9.165,4.307,16.563,9.779,22.055,16.323
			c10.98,13.081,14.378,30.663,15.327,42.773C388.019,424.284,371.236,417.867,360.314,404.847z M404.919,360.188
			c-7.383-4.263-14.052-10.589-19.892-18.854c0.034-0.052,0.065-0.103,0.098-0.153c0.519-0.786,1.019-1.583,1.523-2.378
			c0.321-0.505,0.651-1.005,0.966-1.513c0.723-1.169,1.426-2.349,2.118-3.535c0.082-0.142,0.17-0.28,0.252-0.421
			c0.776-1.342,1.532-2.695,2.266-4.058c0.122-0.228,0.235-0.458,0.357-0.685c0.602-1.131,1.197-2.265,1.769-3.409
			c0.015-0.029,0.03-0.057,0.045-0.086c10.082,0.916,18.891,3.521,26.271,7.782c14.796,8.536,24,23.888,29.034,34.94
			C437.609,368.973,419.639,368.684,404.919,360.188z M431.588,302.988c-8.404-1.493-16.836-5.161-25.148-10.932
			c0.01-0.04,0.018-0.082,0.028-0.122c0.26-1.091,0.497-2.188,0.733-3.286c0.088-0.407,0.186-0.814,0.272-1.222
			c0.626-3.029,1.161-6.076,1.603-9.135c0.045-0.311,0.079-0.622,0.122-0.932c0.169-1.217,0.331-2.435,0.47-3.654
			c0.004-0.039,0.01-0.077,0.015-0.116c9.791-2.591,18.97-3.149,27.376-1.666c16.831,2.964,30.742,14.259,39.252,22.925
			C465.346,300.085,448.408,305.946,431.588,302.988z"/>
	</g>
</g>
<g>
	<g>
		<path d="M334.688,240.878c-6.944,0-12.576,5.631-12.576,12.576c0,39.818-32.394,72.212-72.212,72.212
			c-6.944,0-12.576,5.631-12.576,12.576s5.631,12.576,12.576,12.576c53.686,0,97.363-43.676,97.363-97.363
			C347.263,246.509,341.632,240.878,334.688,240.878z"/>
	</g>
</g>
<g>
	<g>
		<path d="M344.241,209.989l-0.233-2.199c-0.729-6.905-6.9-11.922-13.826-11.186c-6.906,0.728-11.915,6.918-11.186,13.826
			l0.231,2.201c0.682,6.459,6.137,11.256,12.491,11.256c0.44,0,0.887-0.024,1.336-0.072
			C339.962,223.086,344.971,216.896,344.241,209.989z"/>
	</g>
</g>
</svg>