<?xml version="1.0" encoding="utf-8"?><!-- Uploaded to: SVG Repo, www.svgrepo.com, Generator: SVG Repo Mixer Tools -->
<svg width="800px" height="800px" viewBox="0 0 24 24" fill="none" xmlns="http://www.w3.org/2000/svg">
<path d="M4.9996 7V11M9.9996 2V6M17.9996 16V20M2.9996 9H6.9996M7.9996 4H11.9996M15.9996 18H19.9996M13.9996 7L16.828 9.82843M19.5162 3.74612L20.0819 4.3118C20.4779 4.70782 20.6759 4.90583 20.7501 5.13416C20.8154 5.335 20.8154 5.55135 20.7501 5.75219C20.6759 5.98052 20.4779 6.17853 20.0819 6.57454L6.52508 20.1314C6.12906 20.5274 5.93105 20.7254 5.70272 20.7996C5.50188 20.8649 5.28553 20.8649 5.08469 20.7996C4.85636 20.7254 4.65835 20.5274 4.26234 20.1314L3.69665 19.5657C3.30063 19.1697 3.10262 18.9717 3.02844 18.7433C2.96318 18.5425 2.96318 18.3262 3.02844 18.1253C3.10262 17.897 3.30063 17.699 3.69665 17.303L17.2535 3.74612C17.6495 3.3501 17.8475 3.15209 18.0758 3.0779C18.2767 3.01265 18.493 3.01265 18.6939 3.0779C18.9222 3.15209 19.1202 3.3501 19.5162 3.74612Z"  stroke-linecap="round" stroke-linejoin="round"/>
</svg>